<svg width="11" height="12" viewBox="0 0 11 12" fill="none" xmlns="http://www.w3.org/2000/svg">
<path d="M6.37516 6.83333C7.29564 6.83333 8.04183 6.08714 8.04183 5.16667C8.04183 4.24619 7.29564 3.5 6.37516 3.5C5.45469 3.5 4.7085 4.24619 4.7085 5.16667C4.7085 6.08714 5.45469 6.83333 6.37516 6.83333Z" stroke="#609A9B" stroke-width="0.833333" stroke-linecap="round" stroke-linejoin="round"/>
<path d="M0.958496 4.95833H2.2085" stroke="#609A9B" stroke-width="0.833333" stroke-linecap="round" stroke-linejoin="round"/>
<path d="M0.958496 2.875H2.2085" stroke="#609A9B" stroke-width="0.833333" stroke-linecap="round" stroke-linejoin="round"/>
<path d="M0.958496 7.04167H2.2085" stroke="#609A9B" stroke-width="0.833333" stroke-linecap="round" stroke-linejoin="round"/>
<path d="M0.958496 9.125H2.2085" stroke="#609A9B" stroke-width="0.833333" stroke-linecap="round" stroke-linejoin="round"/>
<path d="M3.875 8.08333C4.16608 7.69522 4.54353 7.3802 4.97746 7.16324C5.41138 6.94628 5.88986 6.83333 6.375 6.83333C6.86014 6.83333 7.33862 6.94628 7.77254 7.16324C8.20647 7.3802 8.58392 7.69522 8.875 8.08333" stroke="#609A9B" stroke-width="0.833333" stroke-linecap="round" stroke-linejoin="round"/>
<path d="M10.5415 10.5833V1.41667C10.5415 1.18655 10.355 1 10.1248 1L2.62484 1C2.39472 1 2.20817 1.18655 2.20817 1.41667V10.5833C2.20817 10.8135 2.39472 11 2.62484 11H10.1248C10.355 11 10.5415 10.8135 10.5415 10.5833Z" stroke="#609A9B" stroke-width="0.833333" stroke-linecap="round" stroke-linejoin="round"/>
</svg>
