<svg width="20" height="17" viewBox="0 0 20 17" fill="none" xmlns="http://www.w3.org/2000/svg">
<path d="M2 1.56305V15.1765" stroke="black" stroke-width="2.25" stroke-linecap="round" stroke-linejoin="round"/>
<path d="M8.31771 6.25911L6.69987 11.5H4.98177L7.41992 4.86458H8.50911L8.31771 6.25911ZM9.65755 11.5L8.03516 6.25911L7.82552 4.86458H8.92839L11.3802 11.5H9.65755ZM9.59375 9.02539V10.2604H6.18945V9.02539H9.59375ZM15.7791 8.67904H14.0701L14.061 7.63086H15.4464C15.6955 7.63086 15.8945 7.60352 16.0434 7.54883C16.1923 7.4911 16.3001 7.40755 16.367 7.29818C16.4369 7.1888 16.4718 7.05208 16.4718 6.88802C16.4718 6.69965 16.4369 6.54774 16.367 6.43229C16.2971 6.31684 16.1862 6.23329 16.0343 6.18164C15.8854 6.12695 15.6925 6.09961 15.4555 6.09961H14.6717V11.5H13.0721V4.86458H15.4555C15.8657 4.86458 16.2318 4.90256 16.5538 4.97852C16.8759 5.05143 17.1493 5.16385 17.3741 5.31575C17.602 5.46766 17.7752 5.65907 17.8937 5.88997C18.0122 6.11784 18.0714 6.38672 18.0714 6.69661C18.0714 6.96701 18.0137 7.2207 17.8982 7.45768C17.7828 7.69466 17.5899 7.88759 17.3195 8.03646C17.0521 8.18229 16.686 8.25825 16.2211 8.26432L15.7791 8.67904ZM15.7153 11.5H13.6827L14.2296 10.2695H15.7153C15.934 10.2695 16.1087 10.2361 16.2394 10.1693C16.3731 10.0994 16.4688 10.0082 16.5265 9.89583C16.5872 9.78038 16.6176 9.65278 16.6176 9.51302C16.6176 9.34288 16.5888 9.19553 16.531 9.07096C16.4764 8.9464 16.3882 8.85069 16.2667 8.78385C16.1452 8.71398 15.9826 8.67904 15.7791 8.67904H14.4347L14.4438 7.63086H16.0525L16.4262 8.05013C16.8698 8.0319 17.2207 8.09418 17.479 8.23698C17.7402 8.37977 17.9271 8.56814 18.0395 8.80208C18.1519 9.03602 18.2081 9.2806 18.2081 9.53581C18.2081 9.97027 18.1139 10.3333 17.9256 10.625C17.7402 10.9167 17.4622 11.1354 17.0916 11.2812C16.7209 11.4271 16.2622 11.5 15.7153 11.5Z" fill="black"/>
<path d="M8.31771 6.25911L8.54066 6.32794L8.54628 6.30973L8.54887 6.29084L8.31771 6.25911ZM6.69987 11.5V11.7333H6.87204L6.92282 11.5688L6.69987 11.5ZM4.98177 11.5L4.76275 11.4195L4.64745 11.7333H4.98177V11.5ZM7.41992 4.86458V4.63125H7.25707L7.20091 4.78411L7.41992 4.86458ZM8.50911 4.86458L8.74028 4.89631L8.77666 4.63125H8.50911V4.86458ZM9.65755 11.5L9.43466 11.569L9.48553 11.7333H9.65755V11.5ZM8.03516 6.25911L7.80442 6.2938L7.80704 6.31125L7.81226 6.32812L8.03516 6.25911ZM7.82552 4.86458V4.63125H7.55449L7.59478 4.89927L7.82552 4.86458ZM8.92839 4.86458L9.14726 4.78371L9.09092 4.63125H8.92839V4.86458ZM11.3802 11.5V11.7333H11.7152L11.5991 11.4191L11.3802 11.5ZM9.59375 9.02539H9.82708V8.79206H9.59375V9.02539ZM9.59375 10.2604V10.4937H9.82708V10.2604H9.59375ZM6.18945 10.2604H5.95612V10.4937H6.18945V10.2604ZM6.18945 9.02539V8.79206H5.95612V9.02539H6.18945ZM8.09476 6.19029L6.47692 11.4312L6.92282 11.5688L8.54066 6.32794L8.09476 6.19029ZM6.69987 11.2667H4.98177V11.7333H6.69987V11.2667ZM5.20079 11.5805L7.63894 4.94506L7.20091 4.78411L4.76275 11.4195L5.20079 11.5805ZM7.41992 5.09792H8.50911V4.63125H7.41992V5.09792ZM8.27795 4.83285L8.08654 6.22739L8.54887 6.29084L8.74028 4.89631L8.27795 4.83285ZM9.88045 11.431L8.25805 6.19011L7.81226 6.32812L9.43466 11.569L9.88045 11.431ZM8.2659 6.22443L8.05626 4.8299L7.59478 4.89927L7.80442 6.2938L8.2659 6.22443ZM7.82552 5.09792H8.92839V4.63125H7.82552V5.09792ZM8.70952 4.94546L11.1613 11.5809L11.5991 11.4191L9.14726 4.78371L8.70952 4.94546ZM11.3802 11.2667H9.65755V11.7333H11.3802V11.2667ZM9.36042 9.02539V10.2604H9.82708V9.02539H9.36042ZM9.59375 10.0271H6.18945V10.4937H9.59375V10.0271ZM6.42279 10.2604V9.02539H5.95612V10.2604H6.42279ZM6.18945 9.25872H9.59375V8.79206H6.18945V9.25872ZM15.7791 8.67904V8.91237H15.8714L15.9387 8.84921L15.7791 8.67904ZM14.0701 8.67904L13.8368 8.68107L13.8388 8.91237H14.0701V8.67904ZM14.061 7.63086V7.39753H13.8256L13.8277 7.63289L14.061 7.63086ZM16.0434 7.54883L16.1239 7.76789L16.1278 7.76638L16.0434 7.54883ZM16.367 7.29818L16.1703 7.17253L16.1679 7.17651L16.367 7.29818ZM16.0343 6.18164L15.9538 6.40073L15.9592 6.40255L16.0343 6.18164ZM14.6717 6.09961V5.86628H14.4383V6.09961H14.6717ZM14.6717 11.5V11.7333H14.905V11.5H14.6717ZM13.0721 11.5H12.8387V11.7333H13.0721V11.5ZM13.0721 4.86458V4.63125H12.8387V4.86458H13.0721ZM16.5538 4.97852L16.5003 5.20563L16.5023 5.20609L16.5538 4.97852ZM17.3741 5.31575L17.2435 5.5091L17.2447 5.5099L17.3741 5.31575ZM17.8937 5.88997L17.6861 5.9965L17.6867 5.99762L17.8937 5.88997ZM17.3195 8.03646L17.4312 8.2413L17.432 8.24086L17.3195 8.03646ZM16.2211 8.26432L16.2181 8.03101L16.1275 8.03219L16.0615 8.09415L16.2211 8.26432ZM13.6827 11.5L13.4695 11.4052L13.3237 11.7333H13.6827V11.5ZM14.2296 10.2695V10.0362H14.078L14.0164 10.1748L14.2296 10.2695ZM16.2394 10.1693L16.3457 10.377L16.3475 10.3761L16.2394 10.1693ZM16.5265 9.89583L16.32 9.78715L16.3189 9.78925L16.5265 9.89583ZM16.531 9.07096L16.3173 9.16478L16.3193 9.16907L16.531 9.07096ZM16.2667 8.78385L16.1504 8.98617L16.1543 8.9883L16.2667 8.78385ZM14.4347 8.67904L14.2014 8.67701L14.1993 8.91237H14.4347V8.67904ZM14.4438 7.63086V7.39753H14.2125L14.2105 7.62883L14.4438 7.63086ZM16.0525 7.63086L16.2267 7.47561L16.1571 7.39753H16.0525V7.63086ZM16.4262 8.05013L16.252 8.20538L16.3255 8.2878L16.4358 8.28327L16.4262 8.05013ZM17.479 8.23698L17.366 8.44118L17.3671 8.44173L17.479 8.23698ZM17.9256 10.625L17.7296 10.4984L17.7286 10.4999L17.9256 10.625ZM17.0916 11.2812L17.177 11.4984L17.0916 11.2812ZM15.7791 8.4457H14.0701V8.91237H15.7791V8.4457ZM14.3034 8.67701L14.2943 7.62883L13.8277 7.63289L13.8368 8.68107L14.3034 8.67701ZM14.061 7.86419H15.4464V7.39753H14.061V7.86419ZM15.4464 7.86419C15.7091 7.86419 15.9388 7.83583 16.1239 7.76785L15.963 7.3298C15.8503 7.3712 15.6819 7.39753 15.4464 7.39753V7.86419ZM16.1278 7.76638C16.3124 7.69478 16.4666 7.5827 16.5661 7.41985L16.1679 7.17651C16.1337 7.2324 16.0721 7.28743 15.9591 7.33128L16.1278 7.76638ZM16.5636 7.4238C16.6631 7.26815 16.7051 7.08492 16.7051 6.88802H16.2385C16.2385 7.01925 16.2107 7.10945 16.1704 7.17255L16.5636 7.4238ZM16.7051 6.88802C16.7051 6.67316 16.6656 6.47504 16.5666 6.31147L16.1674 6.55311C16.2081 6.62045 16.2385 6.72614 16.2385 6.88802H16.7051ZM16.5666 6.31147C16.4631 6.14052 16.303 6.02656 16.1094 5.96073L15.9592 6.40255C16.0694 6.44002 16.1311 6.49316 16.1674 6.55311L16.5666 6.31147ZM16.1148 5.96262C15.9307 5.89501 15.7077 5.86628 15.4555 5.86628V6.33294C15.6773 6.33294 15.8401 6.3589 15.9538 6.40066L16.1148 5.96262ZM15.4555 5.86628H14.6717V6.33294H15.4555V5.86628ZM14.4383 6.09961V11.5H14.905V6.09961H14.4383ZM14.6717 11.2667H13.0721V11.7333H14.6717V11.2667ZM13.3054 11.5V4.86458H12.8387V11.5H13.3054ZM13.0721 5.09792H15.4555V4.63125H13.0721V5.09792ZM15.4555 5.09792C15.8517 5.09792 16.1994 5.13465 16.5003 5.20562L16.6074 4.75141C16.2642 4.67047 15.8796 4.63125 15.4555 4.63125V5.09792ZM16.5023 5.20609C16.802 5.27395 17.0473 5.37651 17.2435 5.50909L17.5048 5.12242C17.2513 4.95118 16.9497 4.82891 16.6054 4.75094L16.5023 5.20609ZM17.2447 5.5099C17.4414 5.64101 17.5868 5.80296 17.6861 5.9965L18.1013 5.78344C17.9636 5.51518 17.7626 5.29432 17.5036 5.12161L17.2447 5.5099ZM17.6867 5.99762C17.7846 6.18604 17.8381 6.41652 17.8381 6.69661H18.3047C18.3047 6.35691 18.2397 6.04964 18.1007 5.78232L17.6867 5.99762ZM17.8381 6.69661C17.8381 6.93254 17.788 7.15118 17.6885 7.35549L18.108 7.55988C18.2394 7.29022 18.3047 7.00148 18.3047 6.69661H17.8381ZM17.6885 7.35549C17.5975 7.54215 17.4426 7.70232 17.2069 7.83206L17.432 8.24086C17.7371 8.07285 17.968 7.84718 18.108 7.55988L17.6885 7.35549ZM17.2077 7.83162C16.9867 7.95215 16.6632 8.02519 16.2181 8.03101L16.2242 8.49764C16.7088 8.4913 17.1174 8.41243 17.4312 8.2413L17.2077 7.83162ZM16.0615 8.09415L15.6194 8.50887L15.9387 8.84921L16.3808 8.43449L16.0615 8.09415ZM15.7153 11.2667H13.6827V11.7333H15.7153V11.2667ZM13.896 11.5948L14.4428 10.3643L14.0164 10.1748L13.4695 11.4052L13.896 11.5948ZM14.2296 10.5029H15.7153V10.0362H14.2296V10.5029ZM15.7153 10.5029C15.9543 10.5029 16.1699 10.4669 16.3457 10.377L16.1331 9.96155C16.0475 10.0053 15.9138 10.0362 15.7153 10.0362V10.5029ZM16.3475 10.3761C16.5154 10.2883 16.6503 10.1655 16.7341 10.0024L16.3189 9.78925C16.2872 9.85101 16.2307 9.91051 16.1313 9.96248L16.3475 10.3761ZM16.733 10.0045C16.8126 9.85318 16.851 9.68787 16.851 9.51302H16.3843C16.3843 9.61768 16.3619 9.70758 16.32 9.78716L16.733 10.0045ZM16.851 9.51302C16.851 9.3169 16.8177 9.13461 16.7427 8.97286L16.3193 9.16907C16.3598 9.25645 16.3843 9.36886 16.3843 9.51302H16.851ZM16.7447 8.97717C16.6689 8.8046 16.5447 8.67047 16.3792 8.5794L16.1543 8.9883C16.2318 9.03092 16.2838 9.08819 16.3174 9.16476L16.7447 8.97717ZM16.383 8.58158C16.2137 8.48419 16.0062 8.4457 15.7791 8.4457V8.91237C15.9591 8.91237 16.0767 8.94377 16.1504 8.98613L16.383 8.58158ZM15.7791 8.4457H14.4347V8.91237H15.7791V8.4457ZM14.668 8.68107L14.6771 7.63289L14.2105 7.62883L14.2014 8.67701L14.668 8.68107ZM14.4438 7.86419H16.0525V7.39753H14.4438V7.86419ZM15.8783 7.78611L16.252 8.20538L16.6004 7.89488L16.2267 7.47561L15.8783 7.78611ZM16.4358 8.28327C16.8567 8.26597 17.1595 8.32698 17.3661 8.44117L17.5919 8.03278C17.2819 7.86138 16.8829 7.79783 16.4166 7.81699L16.4358 8.28327ZM17.3671 8.44173C17.592 8.56469 17.7409 8.71949 17.8292 8.90314L18.2498 8.70102C18.1132 8.4168 17.8884 8.19486 17.5909 8.03223L17.3671 8.44173ZM17.8292 8.90314C17.9267 9.1061 17.9748 9.3162 17.9748 9.53581H18.4415C18.4415 9.245 18.3771 8.96594 18.2498 8.70102L17.8292 8.90314ZM17.9748 9.53581C17.9748 9.93662 17.8881 10.2529 17.7296 10.4984L18.1216 10.7516C18.3398 10.4137 18.4415 10.0039 18.4415 9.53581H17.9748ZM17.7286 10.4999C17.5737 10.7437 17.3381 10.9335 17.0062 11.0641L17.177 11.4984C17.5864 11.3373 17.9068 11.0897 18.1225 10.7501L17.7286 10.4999ZM17.0062 11.0641C16.6708 11.1961 16.2431 11.2667 15.7153 11.2667V11.7333C16.2812 11.7333 16.7711 11.6581 17.177 11.4984L17.0062 11.0641Z" fill="black"/>
</svg>
