<svg width="11" height="11" viewBox="0 0 11 11" fill="none" xmlns="http://www.w3.org/2000/svg">
<path d="M5.5 10C7.98528 10 10 7.98528 10 5.5C10 3.01472 7.98528 1 5.5 1C3.01472 1 1 3.01472 1 5.5C1 7.98528 3.01472 10 5.5 10Z" stroke="#609A9B" stroke-width="0.75" stroke-linecap="round" stroke-linejoin="round"/>
<path d="M5.5 8.5C5.81066 8.5 6.0625 8.24816 6.0625 7.9375C6.0625 7.62684 5.81066 7.375 5.5 7.375C5.18934 7.375 4.9375 7.62684 4.9375 7.9375C4.9375 8.24816 5.18934 8.5 5.5 8.5Z" fill="#609A9B"/>
<path d="M5.50049 6.25V5.875C5.76008 5.875 6.01383 5.79802 6.22967 5.6538C6.44551 5.50958 6.61374 5.3046 6.71308 5.06477C6.81242 4.82494 6.83841 4.56104 6.78777 4.30644C6.73713 4.05184 6.61212 3.81798 6.42857 3.63442C6.24501 3.45087 6.01114 3.32586 5.75654 3.27522C5.50194 3.22458 5.23804 3.25057 4.99822 3.34991C4.75839 3.44925 4.5534 3.61748 4.40918 3.83331C4.26496 4.04915 4.18799 4.30291 4.18799 4.5625" stroke="#609A9B" stroke-width="0.75" stroke-linecap="round" stroke-linejoin="round"/>
</svg>
