<svg width="131" height="100" viewBox="0 0 131 100" fill="none" xmlns="http://www.w3.org/2000/svg">
<rect y="68.964" width="113.84" height="3.0425" fill="#FFBF31"/>
<path d="M85.4645 84.6182H87.2627C87.4245 85.2416 87.9939 85.7031 88.6653 85.7031C89.4685 85.7031 90.1218 85.0498 90.1218 84.2466C90.1218 83.5693 89.6603 83.0058 89.0369 82.844V81.0578C89.6603 80.896 90.1218 80.3265 90.1218 79.6552C90.1218 78.852 89.4685 78.1987 88.6653 78.1987C87.8621 78.1987 87.2087 78.852 87.2087 79.6552C87.2087 80.3325 87.6703 80.896 88.2936 81.0578V82.844C87.7902 82.9759 87.3946 83.3715 87.2627 83.8749H85.4645C85.3027 83.2516 84.7332 82.79 84.0619 82.79C83.2587 82.79 82.6054 83.4434 82.6054 84.2466C82.6054 84.9239 83.0669 85.4873 83.6903 85.6492V87.4354C83.0669 87.5972 82.6054 88.1666 82.6054 88.8379C82.6054 89.5153 83.0669 90.0787 83.6903 90.2405V92.0267C83.1868 92.1586 82.7912 92.5542 82.6593 93.0577H80.8731C80.7413 92.5542 80.3457 92.1586 79.8422 92.0267V90.2405C80.4655 90.0787 80.9271 89.5093 80.9271 88.8379C80.9271 88.0348 80.2737 87.3814 79.4705 87.3814C78.7932 87.3814 78.2298 87.8429 78.068 88.4663H76.2698C76.1079 87.8429 75.5385 87.3814 74.8672 87.3814C74.064 87.3814 73.4106 88.0348 73.4106 88.8379C73.4106 89.6411 74.064 90.2945 74.8672 90.2945C75.5445 90.2945 76.1079 89.8329 76.2698 89.2096H78.068C78.1998 89.7131 78.5954 90.1087 79.0989 90.2405V92.0267C78.4755 92.1886 78.014 92.758 78.014 93.4293C78.014 94.1066 78.4755 94.6701 79.0989 94.8319V96.6181C78.4755 96.7799 78.014 97.3494 78.014 98.0207C78.014 98.8239 78.6673 99.4772 79.4705 99.4772C80.2737 99.4772 80.9271 98.8239 80.9271 98.0207C80.9271 97.3434 80.4655 96.7799 79.8422 96.6181V94.8319C80.3457 94.7 80.7413 94.3044 80.8731 93.8009H82.6593C82.8212 94.4243 83.3906 94.8859 84.0619 94.8859C84.8651 94.8859 85.5184 94.2325 85.5184 93.4293C85.5184 92.752 85.0569 92.1886 84.4335 92.0267V90.2405C84.937 90.1087 85.3326 89.7131 85.4645 89.2096H87.2627C87.4245 89.8329 87.9939 90.2945 88.6653 90.2945C89.4685 90.2945 90.1218 89.6411 90.1218 88.8379C90.1218 88.0348 89.4685 87.3814 88.6653 87.3814C87.988 87.3814 87.4245 87.8429 87.2627 88.4663H85.4645C85.3326 87.9628 84.937 87.5672 84.4335 87.4354V85.6492C84.937 85.5173 85.3326 85.1217 85.4645 84.6182Z" fill="#609A9B"/>
<path d="M59.6225 78.1987L61.7738 86.8341H61.895L64.0463 78.1987H68.2277L65.3189 88.3188L68.4398 99.4086H64.1372L61.895 90.3186H61.7738L59.5316 99.4086H55.229L58.3499 88.3188L55.4411 78.1987H59.6225Z" fill="white"/>
<path d="M41.4004 99.4086V78.1987H45.5515V99.4086H41.4004Z" fill="white"/>
<path d="M21.269 99.4086V78.1987H25.4201V95.8938H31.7225V99.4086H21.269Z" fill="white"/>
<path d="M0.531738 99.4086V78.1987H11.5912V81.8347H4.68283V87.1371H10.6822V90.6519H4.68283V99.4086H0.531738Z" fill="white"/>
<path d="M0.0864258 10.1625H17.0533C21.935 10.1625 25.9489 11.3992 29.095 13.8943C32.5447 16.6281 34.2805 20.3599 34.2805 25.1115V29.7329C34.2805 34.4845 32.5664 38.2815 29.1601 41.1454C26.014 43.8141 21.9784 45.1593 17.0533 45.1593H13.6686V62.7988H0.108117V10.1625H0.0864258ZM13.6469 22.8985V32.5101H16.9014C20.0474 32.5101 21.6096 30.9046 21.6096 27.6717C21.6096 24.4823 20.0474 22.8985 16.9014 22.8985H13.6469Z" fill="white"/>
<path d="M70.4715 10.1624V22.8984H50.8793V29.6027H61.5975V42.2085H50.8793V49.8241H70.4715V62.8421H37.3188V10.1624H70.4715Z" fill="white"/>
<path d="M108.115 10.1624V22.8984H97.7436V62.8421H84.2265V22.8984H73.8555V10.1624H108.115Z" fill="white"/>
<path d="M116.373 8.821C118.447 1.00394 114.977 -0.28561 112.983 0.0467483C108.356 1.00395 109.593 6.29508 110.789 8.821C111.122 10.0175 111.029 12.4902 107.997 12.8093C104.966 13.1284 104.474 14.8034 104.607 15.6011C104.607 17.8611 104.687 23.0193 105.006 25.5718C105.325 28.1243 107.266 29.4272 108.197 29.7596C107.399 30.2381 106.934 32.7508 106.801 33.9473C106.602 34.7449 106.602 38.3344 108.197 41.9239C109.792 45.5133 109.393 50.0999 108.795 51.4958C108.197 52.8917 108.396 57.4782 109.792 60.4694C110.909 62.8624 110.523 67.5819 110.191 69.6425C108.33 69.9084 104.169 70.5997 102.414 71.2378C100.659 71.876 101.151 72.5673 101.616 72.8332V75.2261C99.5986 76.6545 100.087 78.8156 101.217 79.8127L101.018 87.7893C100.42 87.7893 98.7446 88.0685 96.8303 89.1852C94.9159 90.3019 95.6338 90.9799 96.232 91.1793V95.1676C97.4285 96.9624 98.8244 96.5635 101.018 97.76C103.212 98.9565 114.179 99.5548 117.171 99.5548C119.564 99.5548 124.283 98.2253 126.344 97.5606C127.74 96.9624 130.611 95.5665 130.93 94.7688C131.249 93.9711 130.398 93.7717 129.933 93.7717V91.1793C131.848 89.584 127.54 87.5899 125.147 86.7922V79.4138C125.612 78.8821 126.503 77.5394 126.344 76.4226C126.184 75.3059 125.081 74.6279 124.549 74.4285V72.6338C125.214 72.6338 126.122 72.2129 125.147 71.2378C124.03 70.1211 118.832 69.709 116.373 69.6425C115.575 66.1328 116.439 62.0648 116.971 60.4694C117.835 58.7412 119.324 54.5269 118.367 51.4958C117.171 47.7069 118.566 43.7186 118.766 41.9239C118.965 40.1291 119.564 37.1379 119.962 33.9473C120.281 31.3948 119.431 29.959 118.965 29.5601C121.518 28.922 122.156 26.5024 122.156 25.3724C121.757 19.7888 124.35 13.5405 119.962 12.8093C116.373 12.211 115.844 10.8151 116.373 8.821Z" fill="#FFBF31"/>
<path d="M117.171 99.5666C119.564 99.5666 124.283 98.2371 126.344 97.5724L124.549 97.7718C120.264 98.503 110.628 99.4868 106.357 97.5724C106.224 97.158 106.038 96.2494 106.357 95.9304C111.542 96.5286 122.868 97.0072 126.697 94.1356C121.712 95.3321 110.425 97.0072 105.16 94.1356V90.5462C105.493 89.7797 106.437 88.1575 107.553 87.8011V80.5754C106.889 80.2431 106.686 79.2804 106.845 78.6009C107.033 77.8017 107.819 77.5842 108.152 77.5842L108.351 75.7895C111.143 75.5236 117.285 74.4733 117.923 73.9947C107.753 74.4403 104.524 73.8396 101.616 72.845V75.2379C99.622 75.9978 99.2234 78.5306 101.217 79.8245L101.018 87.8011C100.42 87.8011 98.7446 88.0803 96.8303 89.197C94.9159 90.3137 95.6338 90.9917 96.232 91.1911V95.1794C97.4285 96.9742 98.8244 96.5753 101.018 97.7718C103.212 98.9683 114.179 99.5666 117.171 99.5666Z" fill="#956619"/>
<path d="M107.971 41.9238C106.376 38.3343 106.376 34.7449 106.575 33.9472C106.708 32.7507 107.173 30.2381 107.971 29.7595C107.041 29.4271 105.1 28.1243 104.78 25.5718C104.461 23.0193 104.382 17.8611 104.382 15.601C104.249 14.8034 104.741 13.1283 107.772 12.8092C110.803 12.4902 110.896 10.0174 110.564 8.82094C109.367 6.29503 108.131 1.00389 112.757 0.0466919C112.425 1.11023 111.92 3.55638 112.558 4.83264C113.355 6.42796 112.361 11.2924 112.757 15.4016C112.93 17.1996 113.993 18.0738 113.355 19.9882C112.956 21.1847 111.959 20.7858 111.561 22.3811L111.361 24.5747H116.945L111.162 25.5718C109.899 26.3694 108.011 28.2041 110.564 29.1612C112.124 29.7464 113.416 29.6658 114.321 29.3932C114.768 29.1307 115.192 28.9172 115.549 28.7624C115.316 28.9691 114.897 29.22 114.321 29.3932C112.277 30.5965 109.773 32.8286 111.162 35.1437C112.358 37.1378 113.555 38.3343 113.355 43.7185C113.222 41.8573 112.398 37.5766 110.165 35.3431C107.373 32.5513 107.373 38.3343 107.971 40.3285C108.45 41.9238 108.735 43.9179 108.818 44.7156C108.64 43.7663 108.367 42.8143 107.971 41.9238Z" fill="#936915"/>
</svg>
